<svg version="1" xmlns="http://www.w3.org/2000/svg" width="400" height="400" viewBox="0 0 300.000000 300.000000"><path d="M138.5 25.6C89 31 48.5 62.8 32.2 109c-5.1 14.4-6.6 23.8-6.6 41-.1 16.7 1.3 25.9 6 40 9.4 28 29.7 53 55.6 68.1 9.3 5.4 24.8 11.5 36 14.1 12.6 2.9 39.2 3.2 51.6.5 24.5-5.4 44.2-15.8 61.7-32.8 5.2-5.1 9.3-9.5 9-9.9-.2-.4-7-4.5-15.1-9.1-8-4.6-14.8-8.9-15.1-9.6-.2-.6 1.6-3.6 4.1-6.7 6.2-7.7 7.1-9.5 5.4-11.1-.7-.7-10-6.3-20.7-12.4L184.7 170l-1.5 2.2c-.9 1.3-3.5 4.2-5.9 6.5-15.2 14.9-40 14.7-55.2-.5-22.5-22.5-11.5-59.8 19.8-67.2 14.6-3.4 32.6 3.9 41.3 16.8l1.5 2.3 20.4-11.8c11.2-6.4 20.6-11.8 20.7-11.9.6-.4-5.8-9.4-9.5-13.5l-3.4-3.7L229 80c8.8-5.1 16-9.8 16-10.5 0-.7-3.8-4.9-8.5-9.3-17.7-16.8-39.8-28.3-62.7-32.7-8.4-1.6-28-2.7-35.3-1.9z"/></svg>